<svg xmlns="http://www.w3.org/2000/svg" viewBox="0 0 24 24" version="1.1">
	<path d="M7.688112 3.04956C7.431768 3.130824 7.2098640000000005 3.332592 7.082736 3.6C7.026888 3.717504 7.0200000000000005 3.760968 7.0200000000000005 3.996C7.0200000000000005 4.243104 7.024896 4.270344000000001 7.096632 4.421784000000001C7.195824000000001 4.63116 7.3688400000000005 4.804176 7.578216 4.9033679999999995L7.74 4.98 9.366 4.98648L10.992 4.992984 10.992 6.0004800000000005L10.992 7.008 8.322000000000001 7.008096000000001C5.46576 7.008191999999999 5.474928 7.007856000000001 5.04 7.1292C4.194096 7.3651919999999995 3.473904 8.07684 3.183216 8.964C3.009672 9.493632 3.0162240000000002 9.407184 3.006456 11.296896L2.997648 13.005768000000002 2.368824 13.012896L1.74 13.02 1.578216 13.096632C1.36884 13.195824 1.195824 13.368839999999999 1.096632 13.578216000000001C1.024896 13.729655999999999 1.02 13.756896 1.02 14.004C1.02 14.239032 1.026888 14.282496000000002 1.082736 14.4C1.211808 14.671488 1.432896 14.870232 1.6964400000000002 14.951616000000001C1.8349440000000001 14.994408000000002 1.9193760000000002 15 2.42652 15L3 15 3.000144 16.638C3.0002880000000003 18.37752 3.00756 18.515472 3.121104 18.936C3.189 19.187424 3.402672 19.61412 3.57552 19.843512C4.010808 20.421167999999998 4.695600000000001 20.812776 5.516376 20.953344C5.781359999999999 20.998728 5.9578560000000005 21 12.008376 20.999928C16.374936 20.99988 18.292344 20.992008000000002 18.444 20.973528C19.124064 20.890608 19.76484 20.575488 20.18484 20.1174C20.579136000000002 19.687344000000003 20.843400000000003 19.125504 20.953344 18.483624C20.996376 18.232416 21 18.086376 21 16.605624L21 15 21.573864 15C22.061856000000002 15 22.168680000000002 14.993447999999999 22.287864 14.956248C22.561608 14.870808 22.77348 14.687784 22.90332 14.424576C22.975512000000002 14.278224000000002 22.98 14.253696 22.98 14.004576C22.98 13.756824 22.975128 13.729704000000002 22.903368 13.578216000000001C22.804176 13.368839999999999 22.63116 13.195824 22.421784 13.096632L22.26 13.02 21.63 13.012872L21 13.005768000000002 21 11.380248C21 10.402344 20.990064 9.673728 20.975064 9.551376C20.878296 8.762232000000001 20.494536 8.081664 19.89288 7.632168C19.550136000000002 7.376112000000001 19.16964 7.201464 18.701736 7.085472L18.444 7.021584 15.726 7.014096L13.008000000000001 7.006632 13.007856 5.489304000000001C13.007784 4.619064000000001 12.997752 3.911112 12.984336 3.829224C12.971471999999999 3.750696 12.932424000000001 3.628104 12.897528000000001 3.5568C12.822456 3.403344 12.616992 3.189936 12.473927999999999 3.1167840000000004C12.244032 2.999256 12.270888 3.0005040000000003 9.984 3.001632C7.921320000000001 3.002664 7.83012 3.00456 7.688112 3.04956M5.691984 9.036696000000001C5.419296 9.096096000000001 5.256336 9.226152 5.141424 9.476136C4.99572 9.793128000000001 5.0060400000000005 9.47724 4.997736000000001 13.872C4.992696 16.550304 4.998528 17.972112 5.015232 18.132C5.058624 18.547512 5.193072 18.744768 5.525136 18.880176C5.848056000000001 19.011864 5.563104 19.006272 11.988 19.006968C15.828912 19.007376 18.016608 18.999024 18.156 18.983448C18.424464 18.953400000000002 18.63384 18.85908 18.745752 18.717792C18.848856 18.587616 18.95004 18.317448 18.983136000000002 18.084C19.002816 17.945184 19.008264 16.764912 19.002792 13.824C18.995616000000002 9.966456 18.992976000000002 9.74928 18.9516 9.626327999999999C18.855696000000002 9.341352 18.699888 9.194304 18.372 9.079320000000001L18.18 9.012 12.012 9.0078C6.846191999999999 9.004272 5.819304 9.008976 5.691984 9.036696000000001M8.736 12.034343999999999C8.562408 12.082656 8.433048000000001 12.159984 8.295024 12.298008000000001C8.143320000000001 12.449736000000001 8.048184000000001 12.630624 8.015664 12.829224000000002C7.983912 13.023024 7.9854959999999995 14.969472 8.017536000000002 15.168000000000001C8.050728 15.373512 8.142072 15.548688 8.296704 15.703296C8.452872 15.859488 8.627136 15.949560000000002 8.838000000000001 15.983136000000002C9.164712 16.035144 9.47028 15.936312000000001 9.703296 15.703296C9.857928000000001 15.548688 9.949272 15.373512 9.982464 15.168000000000001C10.014504 14.969472 10.016088 13.023024 9.984336 12.829224000000002C9.971472 12.750696 9.932424000000001 12.628104000000002 9.897528 12.5568C9.822456 12.403344 9.616992000000002 12.189936 9.473928 12.116783999999999C9.251664 12.003143999999999 8.963712000000001 11.970984 8.736 12.034343999999999M14.736 12.034343999999999C14.562408000000001 12.082656 14.433048 12.159984 14.295024 12.298008000000001C14.14332 12.449736000000001 14.048184000000001 12.630624 14.015664 12.829224000000002C13.983912 13.023024 13.985496000000001 14.969472 14.017536 15.168000000000001C14.050728000000001 15.373512 14.142072 15.548688 14.296704 15.703296C14.452872 15.859488 14.627136000000002 15.949560000000002 14.838000000000001 15.983136000000002C15.164712000000002 16.035144 15.47028 15.936312000000001 15.703296 15.703296C15.857928 15.548688 15.949272 15.373512 15.982464000000002 15.168000000000001C16.014504 14.969472 16.016088 13.023024 15.984336 12.829224000000002C15.971471999999999 12.750696 15.932424000000001 12.628104000000002 15.897528000000001 12.5568C15.822456 12.403344 15.616992 12.189936 15.473927999999999 12.116783999999999C15.251664 12.003143999999999 14.963712000000001 11.970984 14.736 12.034343999999999" stroke="none" fill="currentColor" fill-rule="evenodd" stroke-width="0.024"></path>
</svg>